<svg xmlns="http://www.w3.org/2000/svg" width="16.286" height="19" viewBox="0 0 16.286 19">
  <g id="about" transform="translate(-4 -2)">
    <path id="Path_67" data-name="Path 67" d="M13.75,11.5A4.75,4.75,0,1,0,9,6.75a4.75,4.75,0,0,0,4.75,4.75Zm0-8.143A3.393,3.393,0,1,1,10.357,6.75,3.393,3.393,0,0,1,13.75,3.357Z" transform="translate(-1.607 0)"/>
    <path id="Path_68" data-name="Path 68" d="M12.821,18H11.464A7.464,7.464,0,0,0,4,25.464a.679.679,0,0,0,.679.679H19.607a.679.679,0,0,0,.679-.679A7.464,7.464,0,0,0,12.821,18ZM5.4,24.786a6.107,6.107,0,0,1,6.066-5.429h1.357a6.107,6.107,0,0,1,6.066,5.429Z" transform="translate(0 -5.143)"/>
  </g>
</svg>
